<svg width="20" height="21" viewBox="0 0 20 21" fill="none" xmlns="http://www.w3.org/2000/svg">
<path d="M0.27002 7.79792C0.27002 6.01733 0.270019 5.12798 0.823268 4.57473C1.37652 4.02148 2.26587 4.02148 4.04646 4.02148H15.3758C17.1564 4.02148 18.0457 4.02148 18.599 4.57473C19.1522 5.12798 19.1522 6.01733 19.1522 7.79792C19.1522 8.2426 19.1522 8.46541 19.0144 8.60419C18.8756 8.74203 18.6518 8.74203 18.2081 8.74203H1.21413C0.769453 8.74203 0.546644 8.74203 0.407859 8.60419C0.270019 8.46541 0.27002 8.24165 0.27002 7.79792ZM0.27002 16.2949C0.27002 18.0755 0.270019 18.9648 0.823268 19.5181C1.37652 20.0713 2.26587 20.0713 4.04646 20.0713H15.3758C17.1564 20.0713 18.0457 20.0713 18.599 19.5181C19.1522 18.9648 19.1522 18.0755 19.1522 16.2949V11.5744C19.1522 11.1297 19.1522 10.9069 19.0144 10.7681C18.8756 10.6303 18.6518 10.6303 18.2081 10.6303H1.21413C0.769453 10.6303 0.546644 10.6303 0.407859 10.7681C0.270019 10.9069 0.27002 11.1306 0.27002 11.5744V16.2949Z" fill="#7245D5"/>
<path d="M4.99048 2.13281V4.96514M14.4316 2.13281V4.96514" stroke="#6938D3" stroke-width="2.35099" stroke-linecap="round"/>
</svg>
