<svg width="65" height="65" viewBox="0 0 65 65" fill="none" xmlns="http://www.w3.org/2000/svg">
<path d="M32.553 0.253906C24.0979 0.356497 16.0181 3.76085 10.039 9.73992C4.05993 15.719 0.655569 23.7988 0.552979 32.2539C0.655569 40.709 4.05993 48.7888 10.039 54.7679C16.0181 60.747 24.0979 64.1513 32.553 64.2539C41.008 64.1513 49.0879 60.747 55.067 54.7679C61.046 48.7888 64.4504 40.709 64.553 32.2539C64.4504 23.7988 61.046 15.719 55.067 9.73992C49.0879 3.76085 41.008 0.356497 32.553 0.253906ZM50.8387 34.5396H34.8387V50.5396H30.2673V34.5396H14.2673V29.9682H30.2673V13.9682H34.8387V29.9682H50.8387V34.5396Z" fill="white"/>
</svg>
