<svg width="22" height="23" viewBox="0 0 22 23" fill="none" xmlns="http://www.w3.org/2000/svg">
<path fill-rule="evenodd" clip-rule="evenodd" d="M7.13043 1.86593C7.45957 1.17238 8.16957 0.69043 8.99007 0.69043H13.6921C14.5126 0.69043 15.2214 1.17238 15.5517 1.86593C16.3546 1.87298 16.9811 1.90942 17.5406 2.12806C18.2086 2.38934 18.7895 2.83337 19.2169 3.40935C19.6483 3.99005 19.8517 4.73414 20.1291 5.758L21.0013 8.9577L21.3304 9.94629L21.3586 9.98156C22.4178 11.3381 21.9135 13.3552 20.9049 17.3884C20.2631 19.9545 19.9433 21.2369 18.9865 21.9846C18.0296 22.731 16.7072 22.731 14.0623 22.731H8.61979C5.97492 22.731 4.65249 22.731 3.69563 21.9846C2.73878 21.2369 2.41787 19.9545 1.77722 17.3884C0.768645 13.3552 0.264356 11.3381 1.32348 9.98156L1.35169 9.94629L1.68083 8.9577L2.55305 5.758C2.83164 4.73414 3.035 3.98887 3.46523 3.40818C3.89279 2.83263 4.47369 2.38902 5.14149 2.12806C5.70103 1.90942 6.32639 1.8718 7.13043 1.86593ZM7.13278 3.6327C6.35461 3.64093 6.04192 3.67031 5.78331 3.77141C5.42357 3.91209 5.11071 4.15122 4.88053 4.46142C4.67364 4.74002 4.55139 5.12911 4.2105 6.38336L3.54047 8.83897C4.73947 8.62503 6.37811 8.62503 8.61861 8.62503H14.0623C16.304 8.62503 17.9415 8.62503 19.1405 8.83662L18.4716 6.38101C18.1307 5.12675 18.0085 4.73766 17.8016 4.45907C17.5714 4.14887 17.2586 3.90974 16.8988 3.76906C16.6402 3.66796 16.3275 3.63858 15.5493 3.63035C15.3824 3.98164 15.1194 4.27842 14.7906 4.48627C14.4619 4.69412 14.081 4.80452 13.6921 4.80467H8.99007C8.60127 4.80463 8.22044 4.6944 7.89172 4.48677C7.563 4.27913 7.29986 3.98377 7.13278 3.6327Z" fill="white"/>
</svg>
